<svg width="124" height="48" viewBox="0 0 124 48" fill="none" xmlns="http://www.w3.org/2000/svg">
<path d="M63.9516 13.2776L65.2806 12.3835L40.0835 17.9987L38.1303 22.0016L63.9516 13.2776Z" fill="#F6F3E3"/>
<path d="M30.8872 19.4997L14.821 19.9084C14.6726 19.7717 14.5133 19.6395 14.3409 19.5162C12.0974 17.91 8.16924 17.6921 5.0027 18.9949C3.24374 19.7176 1.93871 20.807 1.3233 22.0616C0.688243 23.3553 0.862829 24.6701 1.81214 25.761C2.04565 26.0329 2.32499 26.2839 2.64142 26.5093C4.35891 27.7369 7.06063 28.1531 9.65322 27.6948C9.72742 27.7925 9.8169 27.8886 9.93474 27.9728C10.5982 28.4461 11.6937 28.4611 12.3833 28.0058C12.9223 27.6482 13.0467 27.1088 12.7609 26.664C14.1248 25.9593 15.1396 25.0202 15.659 23.9609C16.0147 23.2396 16.1064 22.5124 15.9623 21.8197L28.9297 22.1037L30.8872 19.4997ZM13.6905 23.5086C13.2344 24.4417 12.248 25.2576 10.9124 25.8061C8.56643 26.7722 5.71631 26.6505 4.13413 25.5221C3.92681 25.3718 3.74349 25.208 3.59073 25.0337C2.95786 24.3065 2.85093 23.4139 3.28739 22.5229C3.74349 21.5898 4.7299 20.7739 6.0633 20.224C8.4093 19.2578 11.2616 19.378 12.8416 20.5095C13.0489 20.6582 13.2322 20.8235 13.385 20.9993C14.0222 21.725 14.127 22.6176 13.6905 23.5086Z" fill="#F6F3E3"/>
<path d="M34.1149 47.8204C34.224 47.5124 32.3843 44.0685 34.1651 42.7447C34.9202 42.339 35.5879 41.8401 36.1292 41.2677C38.1413 39.137 37.9754 36.4263 35.732 34.8216C35.6709 34.778 35.601 34.7404 35.5378 34.6969L36.6333 22.1563L47.4336 0.000732422L45.775 1.46876L30.4988 21.8227L33.0477 23.7295L32.0788 33.5759C31.1906 33.5038 30.2609 33.5579 29.329 33.7457C27.485 34.1214 25.8548 34.9763 24.7374 36.1589C22.7253 38.2895 22.8912 41.0002 25.1346 42.6065C25.4511 42.8288 25.8068 43.0317 26.1887 43.2015C27.0507 43.5891 28.0218 43.8055 29.041 43.8611C31.5485 44.6334 31.71 47.0256 32.0111 47.5184C32.3166 48.0173 33.997 48.145 34.1149 47.8204ZM33.2158 21.8513C32.8011 21.5523 32.8142 21.079 33.2463 20.792C33.6784 20.508 34.3658 20.5155 34.7827 20.8145C35.1973 21.1105 35.1842 21.5853 34.7521 21.8708C34.3178 22.1578 33.6304 22.1488 33.2158 21.8513ZM30.9527 42.3089C29.6411 42.5764 28.3514 42.4652 27.3191 42.0054C27.0682 41.8927 26.8368 41.762 26.6295 41.6117C25.0473 40.4818 24.984 38.5134 26.4746 36.9387C27.3213 36.0387 28.5434 35.3941 29.9161 35.1146C31.2277 34.8471 32.5152 34.9568 33.5475 35.4166C33.7984 35.5308 34.0298 35.663 34.2371 35.8133C35.8193 36.9432 35.8804 38.9101 34.392 40.4878C33.5431 41.3834 32.321 42.0325 30.9527 42.3089Z" fill="#F6F3E3"/>
<path d="M57.6505 18.447L60.4197 5.4371H63.0775C64.0191 5.4371 64.8555 5.62915 65.5865 6.01326C66.3176 6.39736 66.8937 6.9797 67.315 7.7603C67.7363 8.54089 67.9469 9.53212 67.9469 10.734C67.9469 11.8243 67.7858 12.8403 67.4637 13.782C67.1539 14.7113 66.7079 15.5291 66.1255 16.2353C65.5555 16.9292 64.8803 17.4743 64.0997 17.8708C63.3315 18.2549 62.4827 18.447 61.5535 18.447H57.6505ZM63.0775 6.68234H61.5906L59.3418 17.2018H61.5163C62.2721 17.2018 62.9598 17.0407 63.5793 16.7185C64.1988 16.384 64.7254 15.9256 65.1591 15.3432C65.6051 14.7485 65.9458 14.067 66.1813 13.2988C66.4167 12.5306 66.5344 11.7128 66.5344 10.8455C66.5344 9.48256 66.2246 8.44796 65.6051 7.74171C64.998 7.03546 64.1554 6.68234 63.0775 6.68234ZM67.475 18.447L74.6118 5.4371H76.4518L78.0316 18.447H76.5633L76.1544 14.8228H70.9505L68.999 18.447H67.475ZM71.5638 13.6891H76.0243L75.2252 6.88678L71.5638 13.6891ZM82.9681 18.447L81.3883 5.4371H82.8566L84.1947 16.9973L90.4209 5.4371H91.9449L84.8081 18.447H82.9681ZM94.298 18.447L95.4317 13.1129L92.6253 5.4371H94.1122L96.4168 11.8677L101.435 5.4371H102.996L96.8256 13.2616L95.7291 18.447H94.298ZM57.7992 37.447L60.5684 24.4371H64.267C64.9732 24.4371 65.5803 24.5548 66.0883 24.7902C66.6087 25.0133 67.0052 25.3416 67.2778 25.7753C67.5628 26.2089 67.7053 26.7231 67.7053 27.3179C67.7053 28.148 67.4451 28.8729 66.9247 29.4924C66.4043 30.1119 65.7166 30.5332 64.8617 30.7562C65.506 30.9544 66.0078 31.2828 66.3671 31.7412C66.7264 32.1997 66.9061 32.7572 66.9061 33.4139C66.9061 34.1821 66.7079 34.876 66.3114 35.4955C65.9149 36.1026 65.3697 36.5797 64.6758 36.9266C63.982 37.2735 63.189 37.447 62.2969 37.447H57.7992ZM60.7915 30.1243H63.3934C63.9634 30.1243 64.4652 30.019 64.8989 29.8083C65.3325 29.5853 65.6671 29.2817 65.9025 28.8976C66.1503 28.5011 66.2742 28.0551 66.2742 27.5595C66.2742 26.9771 66.0759 26.5187 65.6795 26.1841C65.283 25.8372 64.7316 25.6638 64.0253 25.6638H61.7393L60.7915 30.1243ZM59.4905 36.2203H62.2783C62.9102 36.2203 63.4678 36.1026 63.951 35.8672C64.4342 35.6194 64.8121 35.2849 65.0847 34.8636C65.3573 34.4423 65.4936 33.9529 65.4936 33.3953C65.4936 32.7387 65.2706 32.2245 64.8245 31.8527C64.3785 31.481 63.7589 31.2952 62.966 31.2952H60.5313L59.4905 36.2203ZM67.475 37.447L74.6118 24.4371H76.4518L78.0316 37.447H76.5633L76.1544 33.8228H70.9505L68.999 37.447H67.475ZM71.5638 32.6891H76.0243L75.2252 25.8868L71.5638 32.6891ZM80.2174 37.447L82.9867 24.4371H86.4808C87.2242 24.4371 87.8623 24.5734 88.3951 24.846C88.9402 25.1062 89.3553 25.4841 89.6403 25.9797C89.9377 26.4753 90.0863 27.0577 90.0863 27.7267C90.0863 28.7428 89.7704 29.6225 89.1385 30.3659C88.519 31.0969 87.7012 31.5678 86.6852 31.7784L88.5623 37.447H87.0755L85.2727 31.8899H82.838L81.6485 37.447H80.2174ZM83.0796 30.7004H85.5701C86.1772 30.7004 86.7162 30.5765 87.187 30.3287C87.6578 30.0809 88.0234 29.7402 88.2836 29.3065C88.5561 28.8729 88.6924 28.3772 88.6924 27.8197C88.6924 27.163 88.4756 26.6488 88.0419 26.2771C87.6083 25.893 87.0197 25.7009 86.2763 25.7009H84.1576L83.0796 30.7004ZM91.2314 37.447L94.0006 24.4371H97.6992C98.4054 24.4371 99.0125 24.5548 99.5205 24.7902C100.041 25.0133 100.437 25.3416 100.71 25.7753C100.995 26.2089 101.137 26.7231 101.137 27.3179C101.137 28.148 100.877 28.8729 100.357 29.4924C99.8365 30.1119 99.1488 30.5332 98.2939 30.7562C98.9382 30.9544 99.44 31.2828 99.7993 31.7412C100.159 32.1997 100.338 32.7572 100.338 33.4139C100.338 34.1821 100.14 34.876 99.7436 35.4955C99.3471 36.1026 98.8019 36.5797 98.108 36.9266C97.4142 37.2735 96.6212 37.447 95.7291 37.447H91.2314ZM94.2237 30.1243H96.8256C97.3956 30.1243 97.8974 30.019 98.3311 29.8083C98.7647 29.5853 99.0993 29.2817 99.3347 28.8976C99.5825 28.5011 99.7064 28.0551 99.7064 27.5595C99.7064 26.9771 99.5082 26.5187 99.1117 26.1841C98.7152 25.8372 98.1638 25.6638 97.4576 25.6638H95.1715L94.2237 30.1243ZM92.9227 36.2203H95.7105C96.3424 36.2203 96.9 36.1026 97.3832 35.8672C97.8664 35.6194 98.2443 35.2849 98.5169 34.8636C98.7895 34.4423 98.9258 33.9529 98.9258 33.3953C98.9258 32.7387 98.7028 32.2245 98.2567 31.8527C97.8107 31.481 97.1912 31.2952 96.3982 31.2952H93.9635L92.9227 36.2203ZM102.413 37.447L105.182 24.4371H113.322L113.044 25.6823H106.353L105.368 30.2544H109.847L109.587 31.4996H105.108L104.104 36.2018H110.888L110.627 37.447H102.413ZM113.65 37.447L116.419 24.4371H119.913C120.656 24.4371 121.294 24.5734 121.827 24.846C122.372 25.1062 122.788 25.4841 123.073 25.9797C123.37 26.4753 123.519 27.0577 123.519 27.7267C123.519 28.7428 123.203 29.6225 122.571 30.3659C121.951 31.0969 121.133 31.5678 120.117 31.7784L121.995 37.447H120.508L118.705 31.8899H116.27L115.081 37.447H113.65ZM116.512 30.7004H119.002C119.609 30.7004 120.148 30.5765 120.619 30.3287C121.09 30.0809 121.456 29.7402 121.716 29.3065C121.988 28.8729 122.125 28.3772 122.125 27.8197C122.125 27.163 121.908 26.6488 121.474 26.2771C121.04 25.893 120.452 25.7009 119.709 25.7009H117.59L116.512 30.7004Z" fill="white"/>
</svg>
